<svg width="800" height="300" viewBox="0 0 800 300" fill="none" xmlns="http://www.w3.org/2000/svg">
<path d="M312 80H188C183.582 80 180 83.5817 180 88V252C180 256.418 183.582 260 188 260H312C316.418 260 320 256.418 320 252V88C320 83.5817 316.418 80 312 80Z" fill="#86EFAC" stroke="#2D4A56" stroke-width="4"/>
<path d="M298 110H202C200.895 110 200 110.895 200 112V116C200 117.105 200.895 118 202 118H298C299.105 118 300 117.105 300 116V112C300 110.895 299.105 110 298 110Z" fill="#22C55E"/>
<path d="M298 130H202C200.895 130 200 130.895 200 132V136C200 137.105 200.895 138 202 138H298C299.105 138 300 137.105 300 136V132C300 130.895 299.105 130 298 130Z" fill="#22C55E"/>
<path d="M298 150H202C200.895 150 200 150.895 200 152V156C200 157.105 200.895 158 202 158H298C299.105 158 300 157.105 300 156V152C300 150.895 299.105 150 298 150Z" fill="#22C55E"/>
<path d="M278 170H202C200.895 170 200 170.895 200 172V176C200 177.105 200.895 178 202 178H278C279.105 178 280 177.105 280 176V172C280 170.895 279.105 170 278 170Z" fill="#22C55E"/>
<path d="M288 190H202C200.895 190 200 190.895 200 192V196C200 197.105 200.895 198 202 198H288C289.105 198 290 197.105 290 196V192C290 190.895 289.105 190 288 190Z" fill="#22C55E"/>
<path d="M262 60H138C133.582 60 130 63.5817 130 68V232C130 236.418 133.582 240 138 240H262C266.418 240 270 236.418 270 232V68C270 63.5817 266.418 60 262 60Z" fill="white" stroke="#2D4A56" stroke-width="4"/>
<path d="M248 90H152C150.895 90 150 90.8954 150 92V96C150 97.1046 150.895 98 152 98H248C249.105 98 250 97.1046 250 96V92C250 90.8954 249.105 90 248 90Z" fill="#D1D5DB"/>
<path d="M248 110H152C150.895 110 150 110.895 150 112V116C150 117.105 150.895 118 152 118H248C249.105 118 250 117.105 250 116V112C250 110.895 249.105 110 248 110Z" fill="#D1D5DB"/>
<path d="M248 130H152C150.895 130 150 130.895 150 132V136C150 137.105 150.895 138 152 138H248C249.105 138 250 137.105 250 136V132C250 130.895 249.105 130 248 130Z" fill="#D1D5DB"/>
<path d="M228 150H152C150.895 150 150 150.895 150 152V156C150 157.105 150.895 158 152 158H228C229.105 158 230 157.105 230 156V152C230 150.895 229.105 150 228 150Z" fill="#D1D5DB"/>
<path d="M238 170H152C150.895 170 150 170.895 150 172V176C150 177.105 150.895 178 152 178H238C239.105 178 240 177.105 240 176V172C240 170.895 239.105 170 238 170Z" fill="#D1D5DB"/>
<path d="M218 190H152C150.895 190 150 190.895 150 192V196C150 197.105 150.895 198 152 198H218C219.105 198 220 197.105 220 196V192C220 190.895 219.105 190 218 190Z" fill="#D1D5DB"/>
<path d="M230 225C254.853 225 275 204.853 275 180C275 155.147 254.853 135 230 135C205.147 135 185 155.147 185 180C185 204.853 205.147 225 230 225Z" fill="white" fill-opacity="0.95" stroke="#2D4A56" stroke-width="5"/>
<path d="M253 170H207C205.895 170 205 170.895 205 172V174C205 175.105 205.895 176 207 176H253C254.105 176 255 175.105 255 174V172C255 170.895 254.105 170 253 170Z" fill="#22C55E"/>
<path d="M253 184H207C205.895 184 205 184.895 205 186V188C205 189.105 205.895 190 207 190H253C254.105 190 255 189.105 255 188V186C255 184.895 254.105 184 253 184Z" fill="#EF4444"/>
<path d="M275.678 225.678L261.536 211.536C259.583 209.583 256.417 209.583 254.464 211.536C252.512 213.488 252.512 216.654 254.464 218.607L268.607 232.749C270.559 234.701 273.725 234.701 275.678 232.749C277.63 230.796 277.63 227.63 275.678 225.678Z" fill="#2D4A56"/>
<path d="M378.892 137H355.689V71.5455H379.084C385.668 71.5455 391.335 72.8558 396.087 75.4766C400.838 78.076 404.492 81.8153 407.049 86.6946C409.627 91.5739 410.916 97.4119 410.916 104.209C410.916 111.027 409.627 116.886 407.049 121.787C404.492 126.687 400.817 130.448 396.023 133.069C391.25 135.69 385.54 137 378.892 137ZM369.528 125.143H378.317C382.408 125.143 385.849 124.418 388.64 122.969C391.452 121.499 393.562 119.23 394.968 116.162C396.396 113.072 397.109 109.088 397.109 104.209C397.109 99.3722 396.396 95.4197 394.968 92.3516C393.562 89.2834 391.463 87.0249 388.672 85.576C385.881 84.1271 382.44 83.4027 378.349 83.4027H369.528V125.143ZM420.912 137V87.9091H434.527V137H420.912ZM427.751 81.581C425.727 81.581 423.991 80.9098 422.542 79.5675C421.114 78.2038 420.4 76.5739 420.4 74.6776C420.4 72.8026 421.114 71.1939 422.542 69.8516C423.991 68.4879 425.727 67.8061 427.751 67.8061C429.775 67.8061 431.501 68.4879 432.929 69.8516C434.378 71.1939 435.102 72.8026 435.102 74.6776C435.102 76.5739 434.378 78.2038 432.929 79.5675C431.501 80.9098 429.775 81.581 427.751 81.581ZM471.832 87.9091V98.1364H441.534V87.9091H471.832ZM448.469 137V84.3615C448.469 80.8033 449.162 77.8523 450.547 75.5085C451.953 73.1648 453.871 71.407 456.3 70.2351C458.729 69.0632 461.488 68.4773 464.577 68.4773C466.665 68.4773 468.572 68.6371 470.298 68.9567C472.045 69.2763 473.345 69.5639 474.197 69.8196L471.768 80.0469C471.236 79.8764 470.575 79.7166 469.787 79.5675C469.02 79.4183 468.232 79.3438 467.422 79.3438C465.419 79.3438 464.023 79.8125 463.235 80.75C462.447 81.6662 462.053 82.9553 462.053 84.6172V137H448.469ZM506.549 87.9091V98.1364H476.251V87.9091H506.549ZM483.186 137V84.3615C483.186 80.8033 483.879 77.8523 485.264 75.5085C486.67 73.1648 488.588 71.407 491.017 70.2351C493.445 69.0632 496.205 68.4773 499.294 68.4773C501.382 68.4773 503.289 68.6371 505.015 68.9567C506.762 69.2763 508.062 69.5639 508.914 69.8196L506.485 80.0469C505.953 79.8764 505.292 79.7166 504.504 79.5675C503.737 79.4183 502.948 79.3438 502.139 79.3438C500.136 79.3438 498.74 79.8125 497.952 80.75C497.164 81.6662 496.769 82.9553 496.769 84.6172V137H483.186Z" fill="#0E1111"/>
<path d="M413.441 184.461H399.442C399.187 182.65 398.665 181.041 397.876 179.635C397.088 178.207 396.076 176.993 394.84 175.991C393.604 174.99 392.177 174.223 390.558 173.69C388.96 173.158 387.223 172.891 385.348 172.891C381.96 172.891 379.009 173.733 376.495 175.416C373.981 177.078 372.031 179.507 370.646 182.703C369.261 185.878 368.569 189.734 368.569 194.273C368.569 198.939 369.261 202.859 370.646 206.034C372.053 209.209 374.013 211.606 376.527 213.225C379.041 214.844 381.95 215.654 385.252 215.654C387.106 215.654 388.821 215.409 390.398 214.919C391.996 214.429 393.413 213.715 394.648 212.778C395.884 211.819 396.907 210.658 397.717 209.294C398.548 207.93 399.123 206.375 399.442 204.628L413.441 204.692C413.079 207.696 412.173 210.594 410.724 213.385C409.297 216.155 407.369 218.637 404.94 220.832C402.532 223.005 399.656 224.731 396.31 226.009C392.987 227.266 389.226 227.895 385.028 227.895C379.19 227.895 373.97 226.574 369.368 223.932C364.787 221.29 361.165 217.465 358.501 212.458C355.859 207.451 354.538 201.389 354.538 194.273C354.538 187.135 355.881 181.062 358.565 176.055C361.25 171.048 364.893 167.234 369.496 164.614C374.098 161.972 379.276 160.651 385.028 160.651C388.821 160.651 392.337 161.183 395.575 162.249C398.835 163.314 401.722 164.869 404.237 166.915C406.751 168.939 408.796 171.421 410.373 174.362C411.971 177.302 412.994 180.668 413.441 184.461ZM436.724 198.619V227H423.109V161.545H436.341V186.57H436.916C438.024 183.673 439.814 181.403 442.285 179.763C444.757 178.101 447.857 177.27 451.586 177.27C454.995 177.27 457.967 178.016 460.502 179.507C463.059 180.977 465.041 183.097 466.447 185.867C467.875 188.616 468.578 191.908 468.556 195.743V227H454.941V198.172C454.963 195.146 454.196 192.792 452.64 191.109C451.106 189.425 448.954 188.584 446.184 188.584C444.331 188.584 442.69 188.978 441.262 189.766C439.856 190.555 438.748 191.705 437.939 193.218C437.15 194.71 436.745 196.51 436.724 198.619ZM501.643 227.959C496.594 227.959 492.247 226.936 488.604 224.891C484.981 222.824 482.19 219.905 480.23 216.134C478.27 212.341 477.29 207.856 477.29 202.678C477.29 197.629 478.27 193.197 480.23 189.383C482.19 185.569 484.949 182.597 488.508 180.466C492.087 178.335 496.285 177.27 501.1 177.27C504.339 177.27 507.354 177.792 510.145 178.836C512.957 179.859 515.407 181.403 517.496 183.47C519.605 185.537 521.246 188.136 522.417 191.268C523.589 194.379 524.175 198.023 524.175 202.199V205.938H482.723V197.501H511.359C511.359 195.54 510.933 193.804 510.081 192.291C509.229 190.778 508.046 189.596 506.533 188.744C505.042 187.87 503.305 187.433 501.324 187.433C499.257 187.433 497.425 187.913 495.827 188.871C494.25 189.809 493.014 191.077 492.119 192.675C491.224 194.251 490.766 196.009 490.745 197.948V205.97C490.745 208.399 491.192 210.498 492.087 212.266C493.003 214.035 494.292 215.398 495.954 216.357C497.616 217.316 499.587 217.795 501.867 217.795C503.38 217.795 504.765 217.582 506.022 217.156C507.279 216.73 508.355 216.091 509.25 215.239C510.145 214.386 510.827 213.342 511.295 212.107L523.888 212.938C523.248 215.963 521.938 218.605 519.957 220.864C517.996 223.101 515.461 224.848 512.35 226.105C509.26 227.341 505.692 227.959 501.643 227.959ZM555.241 227.959C550.212 227.959 545.887 226.893 542.265 224.763C538.664 222.611 535.894 219.628 533.955 215.814C532.037 212 531.079 207.611 531.079 202.646C531.079 197.618 532.048 193.207 533.987 189.415C535.947 185.601 538.728 182.629 542.329 180.498C545.93 178.346 550.212 177.27 555.177 177.27C559.459 177.27 563.209 178.048 566.427 179.603C569.644 181.158 572.19 183.342 574.065 186.155C575.94 188.967 576.974 192.27 577.165 196.062H564.317C563.955 193.612 562.996 191.641 561.441 190.15C559.907 188.637 557.893 187.881 555.4 187.881C553.291 187.881 551.448 188.456 549.871 189.607C548.316 190.736 547.101 192.387 546.228 194.56C545.354 196.734 544.917 199.365 544.917 202.455C544.917 205.587 545.344 208.25 546.196 210.445C547.069 212.639 548.295 214.312 549.871 215.462C551.448 216.613 553.291 217.188 555.4 217.188C556.956 217.188 558.351 216.869 559.587 216.229C560.844 215.59 561.878 214.663 562.687 213.449C563.518 212.213 564.062 210.732 564.317 209.006H577.165C576.952 212.756 575.93 216.059 574.097 218.914C572.286 221.748 569.782 223.964 566.586 225.562C563.39 227.16 559.608 227.959 555.241 227.959ZM598.219 212.874L598.251 196.542H600.233L615.957 177.909H631.586L610.46 202.582H607.232L598.219 212.874ZM585.882 227V161.545H599.498V227H585.882ZM616.564 227L602.118 205.619L611.195 195.999L632.512 227H616.564ZM658.616 227.959C653.566 227.959 649.22 226.936 645.576 224.891C641.954 222.824 639.163 219.905 637.203 216.134C635.242 212.341 634.262 207.856 634.262 202.678C634.262 197.629 635.242 193.197 637.203 189.383C639.163 185.569 641.922 182.597 645.48 180.466C649.06 178.335 653.257 177.27 658.073 177.27C661.311 177.27 664.326 177.792 667.117 178.836C669.93 179.859 672.38 181.403 674.468 183.47C676.578 185.537 678.218 188.136 679.39 191.268C680.562 194.379 681.148 198.023 681.148 202.199V205.938H639.695V197.501H668.332C668.332 195.54 667.906 193.804 667.053 192.291C666.201 190.778 665.019 189.596 663.506 188.744C662.014 187.87 660.278 187.433 658.296 187.433C656.23 187.433 654.397 187.913 652.799 188.871C651.222 189.809 649.987 191.077 649.092 192.675C648.197 194.251 647.739 196.009 647.718 197.948V205.97C647.718 208.399 648.165 210.498 649.06 212.266C649.976 214.035 651.265 215.398 652.927 216.357C654.589 217.316 656.56 217.795 658.84 217.795C660.352 217.795 661.737 217.582 662.994 217.156C664.252 216.73 665.328 216.091 666.222 215.239C667.117 214.386 667.799 213.342 668.268 212.107L680.86 212.938C680.221 215.963 678.911 218.605 676.929 220.864C674.969 223.101 672.433 224.848 669.323 226.105C666.233 227.341 662.664 227.959 658.616 227.959ZM690.033 227V177.909H703.232V186.474H703.744C704.639 183.428 706.141 181.126 708.25 179.571C710.36 177.994 712.789 177.206 715.537 177.206C716.219 177.206 716.954 177.249 717.742 177.334C718.531 177.419 719.223 177.536 719.82 177.685V189.766C719.181 189.575 718.296 189.404 717.167 189.255C716.038 189.106 715.004 189.031 714.067 189.031C712.064 189.031 710.274 189.468 708.698 190.342C707.142 191.194 705.906 192.387 704.99 193.921C704.095 195.455 703.648 197.224 703.648 199.227V227H690.033Z" fill="#0E1111"/>
</svg>
